<svg xmlns="http://www.w3.org/2000/svg" viewBox="0 0 640 600" width="640" height="600" font-family="Arial, Helvetica, sans-serif" font-size="11">
<title>18 mm plak</title>
<rect width="640" height="600" fill="#ffffff"/>
<text x="320.0" y="24" text-anchor="middle" font-size="15" font-weight="bold">Yb-169 HDR episkleral aplikatör, 18 mm plak (ölçek 10 px = 1 mm)</text>
<circle cx="200" cy="190" r="90.0" fill="#e6c96a" stroke="#8a6d1a" stroke-width="1.4"/>
<circle cx="200" cy="190" r="85.0" fill="#eef4f7" stroke="#8a6d1a" stroke-width="0.7"/>
<circle cx="257.3" cy="132.7" r="4.0" fill="#fff" stroke="#8a6d1a" stroke-width="0.8"/>
<circle cx="142.7" cy="132.7" r="4.0" fill="#fff" stroke="#8a6d1a" stroke-width="0.8"/>
<circle cx="123.9" cy="217.7" r="4.0" fill="#fff" stroke="#8a6d1a" stroke-width="0.8"/>
<rect x="127.0" y="141.4" width="16.0" height="100.2" rx="8.0" fill="#b8c7d1" stroke="#2b4c5e" stroke-width="0.8"/>
<rect x="129.0" y="143.4" width="12.0" height="98.2" rx="6.0" fill="#fff"/>
<rect x="129.0" y="143.4" width="12.0" height="20.0" rx="6.0" fill="#f3d1cc"/>
<circle cx="135.0" cy="236.6" r="2.8" fill="#c0392b"/>
<circle cx="135.0" cy="211.6" r="2.8" fill="#c0392b"/>
<circle cx="135.0" cy="186.6" r="2.8" fill="#c0392b"/>
<circle cx="135.0" cy="161.6" r="2.8" fill="#c0392b"/>
<line x1="135.0" y1="241.6" x2="135.0" y2="290.0" stroke="#2b4c5e" stroke-width="0.8"/>
<rect x="159.5" y="116.6" width="16.0" height="149.7" rx="8.0" fill="#b8c7d1" stroke="#2b4c5e" stroke-width="0.8"/>
<rect x="161.5" y="118.6" width="12.0" height="147.7" rx="6.0" fill="#fff"/>
<rect x="161.5" y="118.6" width="12.0" height="20.0" rx="6.0" fill="#f3d1cc"/>
<circle cx="167.5" cy="261.4" r="2.8" fill="#c0392b"/>
<circle cx="167.5" cy="236.4" r="2.8" fill="#c0392b"/>
<circle cx="167.5" cy="211.4" r="2.8" fill="#c0392b"/>
<circle cx="167.5" cy="186.4" r="2.8" fill="#c0392b"/>
<circle cx="167.5" cy="161.4" r="2.8" fill="#c0392b"/>
<line x1="167.5" y1="266.4" x2="167.5" y2="290.0" stroke="#2b4c5e" stroke-width="0.8"/>
<rect x="192.0" y="110.0" width="16.0" height="163.0" rx="8.0" fill="#b8c7d1" stroke="#2b4c5e" stroke-width="0.8"/>
<rect x="194.0" y="112.0" width="12.0" height="161.0" rx="6.0" fill="#fff"/>
<rect x="194.0" y="112.0" width="12.0" height="20.0" rx="6.0" fill="#f3d1cc"/>
<circle cx="200.0" cy="268.0" r="2.8" fill="#c0392b"/>
<circle cx="200.0" cy="243.0" r="2.8" fill="#c0392b"/>
<circle cx="200.0" cy="218.0" r="2.8" fill="#c0392b"/>
<circle cx="200.0" cy="193.0" r="2.8" fill="#c0392b"/>
<circle cx="200.0" cy="168.0" r="2.8" fill="#c0392b"/>
<circle cx="200.0" cy="143.0" r="2.8" fill="#c0392b"/>
<line x1="200.0" y1="273.0" x2="200.0" y2="290.0" stroke="#2b4c5e" stroke-width="0.8"/>
<rect x="224.5" y="116.6" width="16.0" height="149.7" rx="8.0" fill="#b8c7d1" stroke="#2b4c5e" stroke-width="0.8"/>
<rect x="226.5" y="118.6" width="12.0" height="147.7" rx="6.0" fill="#fff"/>
<rect x="226.5" y="118.6" width="12.0" height="20.0" rx="6.0" fill="#f3d1cc"/>
<circle cx="232.5" cy="261.4" r="2.8" fill="#c0392b"/>
<circle cx="232.5" cy="236.4" r="2.8" fill="#c0392b"/>
<circle cx="232.5" cy="211.4" r="2.8" fill="#c0392b"/>
<circle cx="232.5" cy="186.4" r="2.8" fill="#c0392b"/>
<circle cx="232.5" cy="161.4" r="2.8" fill="#c0392b"/>
<line x1="232.5" y1="266.4" x2="232.5" y2="290.0" stroke="#2b4c5e" stroke-width="0.8"/>
<rect x="257.0" y="141.4" width="16.0" height="100.2" rx="8.0" fill="#b8c7d1" stroke="#2b4c5e" stroke-width="0.8"/>
<rect x="259.0" y="143.4" width="12.0" height="98.2" rx="6.0" fill="#fff"/>
<rect x="259.0" y="143.4" width="12.0" height="20.0" rx="6.0" fill="#f3d1cc"/>
<circle cx="265.0" cy="236.6" r="2.8" fill="#c0392b"/>
<circle cx="265.0" cy="211.6" r="2.8" fill="#c0392b"/>
<circle cx="265.0" cy="186.6" r="2.8" fill="#c0392b"/>
<circle cx="265.0" cy="161.6" r="2.8" fill="#c0392b"/>
<line x1="265.0" y1="241.6" x2="265.0" y2="290.0" stroke="#2b4c5e" stroke-width="0.8"/>
<rect x="120.0" y="290.0" width="160.0" height="22.0" rx="4.0" fill="#9fb3c0" stroke="#2b4c5e" stroke-width="1"/>
<circle cx="135.0" cy="301.0" r="4.5" fill="#fff" stroke="#2b4c5e" stroke-width="0.7"/>
<text x="135.0" y="304.0" text-anchor="middle" font-size="7" fill="#2b4c5e">1</text>
<circle cx="167.5" cy="301.0" r="4.5" fill="#fff" stroke="#2b4c5e" stroke-width="0.7"/>
<text x="167.5" y="304.0" text-anchor="middle" font-size="7" fill="#2b4c5e">2</text>
<circle cx="200.0" cy="301.0" r="4.5" fill="#fff" stroke="#2b4c5e" stroke-width="0.7"/>
<text x="200.0" y="304.0" text-anchor="middle" font-size="7" fill="#2b4c5e">3</text>
<circle cx="232.5" cy="301.0" r="4.5" fill="#fff" stroke="#2b4c5e" stroke-width="0.7"/>
<text x="232.5" y="304.0" text-anchor="middle" font-size="7" fill="#2b4c5e">4</text>
<circle cx="265.0" cy="301.0" r="4.5" fill="#fff" stroke="#2b4c5e" stroke-width="0.7"/>
<text x="265.0" y="304.0" text-anchor="middle" font-size="7" fill="#2b4c5e">5</text>
<path d="M 200 312.0 C 200 342.0 220.0 352.0 240.0 372.0" stroke="#2b4c5e" stroke-width="8.0" fill="none" stroke-linecap="round"/>
<path d="M 200 312.0 C 200 342.0 220.0 352.0 240.0 372.0" stroke="#dfe7ec" stroke-width="4.5" fill="none" stroke-linecap="round"/>
<line x1="110.0" y1="84.0" x2="290.0" y2="84.0" stroke="#333" stroke-width="0.7"/>
<line x1="110.0" y1="79.0" x2="110.0" y2="89.0" stroke="#333" stroke-width="0.7"/>
<line x1="290.0" y1="79.0" x2="290.0" y2="89.0" stroke="#333" stroke-width="0.7"/>
<text x="200" y="80.0" text-anchor="middle" font-size="10" font-weight="bold">Ø 18 mm</text>
<circle cx="470" cy="300" r="113.0" fill="#fdf3e7"/>
<path d="M 356.7 252.1 A 123.0 123.0 0 0 1 583.3 252.1 L 574.1 256.0 A 113.0 113.0 0 0 0 365.9 256.0 Z" fill="#e8dcc8" stroke="#8a7a60" stroke-width="0.8"/>
<path d="M 380.0 216.2 A 123.0 123.0 0 0 1 560.0 216.2 L 566.2 210.4 A 131.5 131.5 0 0 0 373.8 210.4 Z" fill="#d9ecf5" stroke="#4a7c96" stroke-width="0.8"/>
<path d="M 373.8 210.4 A 131.5 131.5 0 0 1 566.2 210.4 L 580.1 197.4 A 150.5 150.5 0 0 0 359.9 197.4 Z" fill="#eef4f7" stroke="#4a7c96" stroke-width="0.8"/>
<path d="M 359.9 197.4 A 150.5 150.5 0 0 1 580.1 197.4 L 591.1 187.2 A 165.5 165.5 0 0 0 348.9 187.2 Z" fill="#e6c96a" stroke="#8a6d1a" stroke-width="1.2"/>
<path d="M 348.9 187.2 L 380.0 216.2 L 385.0 211.1 L 355.6 180.4 Z" fill="#e6c96a" stroke="#8a6d1a" stroke-width="1"/>
<path d="M 591.1 187.2 L 560.0 216.2 L 555.0 211.1 L 584.4 180.4 Z" fill="#e6c96a" stroke="#8a6d1a" stroke-width="1"/>
<circle cx="405.0" cy="178.3" r="8.0" fill="#b8c7d1" stroke="#2b4c5e" stroke-width="0.7"/>
<circle cx="405.0" cy="178.3" r="6.0" fill="#fff"/>
<circle cx="437.5" cy="165.9" r="8.0" fill="#b8c7d1" stroke="#2b4c5e" stroke-width="0.7"/>
<circle cx="437.5" cy="165.9" r="6.0" fill="#fff"/>
<circle cx="470.0" cy="162.0" r="8.0" fill="#b8c7d1" stroke="#2b4c5e" stroke-width="0.7"/>
<circle cx="470.0" cy="162.0" r="6.0" fill="#fff"/>
<circle cx="502.5" cy="165.9" r="8.0" fill="#b8c7d1" stroke="#2b4c5e" stroke-width="0.7"/>
<circle cx="502.5" cy="165.9" r="6.0" fill="#fff"/>
<circle cx="535.0" cy="178.3" r="8.0" fill="#b8c7d1" stroke="#2b4c5e" stroke-width="0.7"/>
<circle cx="535.0" cy="178.3" r="6.0" fill="#fff"/>
<circle cx="470.0" cy="162.0" r="3.5" fill="#c0392b"/>
<line x1="585.0" y1="134.5" x2="585.0" y2="177.0" stroke="#333" stroke-width="0.7"/>
<line x1="582.0" y1="134.5" x2="588.0" y2="134.5" stroke="#333" stroke-width="0.7"/>
<line x1="582.0" y1="177.0" x2="588.0" y2="177.0" stroke="#333" stroke-width="0.7"/>
<text x="590.0" y="158.8" text-anchor="start" font-size="9">4.25 mm</text>
<text x="200" y="395" text-anchor="middle" font-size="11" fill="#555">Üstten görünüş, anterior (giriş bloğu) altta</text>
<text x="470" y="132" text-anchor="middle" font-size="11" fill="#555">Kesit, kanal eksenine dik</text>
<text x="30" y="440" font-size="10.5" fill="#222">Çap 18 mm, tümör tabanı ≤ 14 mm için</text>
<text x="30" y="457" font-size="10.5" fill="#222">Kanal: 5 paralel kör kiriş, aralık 3.25 mm, iç çap 1.2 mm</text>
<text x="30" y="474" font-size="10.5" fill="#222">Bekleme pozisyonu: 24 adet, adım 2.5 mm, kör uç ölü boşluğu 2.0 mm</text>
<text x="30" y="491" font-size="10.5" fill="#222">En uzun kanal yayı 17.8 mm; eksen skleradan 1.5 mm, küre yarıçapı 13.8 mm</text>
<text x="30" y="508" font-size="10.5" fill="#222">Katmanlar: ara katman 0.85 mm, kanal katmanı 1.9 mm, altın sırt 1.5 mm; kenar kalkanı 0.5 mm tam yükseklik</text>
<text x="30" y="525" font-size="10.5" fill="#222">Kubbe derinliği (sagitta) 3.9 mm, yarım açı 47°; iç eğrilik yarıçapı 12.3 mm</text>
<text x="30" y="542" font-size="10.5" fill="#222">Sütür deliği 3 adet, Ø 0,8 mm. Tek giriş bloğu, tek kilitli konektör, tek kılıf.</text>
<text x="320.0" y="586" text-anchor="middle" font-size="10" fill="#777">Şematik tasarım çizimi, taslak v0.1. Üretim çizimi değildir; toleranslar belge 02.</text>
</svg>
