<svg xmlns="http://www.w3.org/2000/svg" viewBox="0 0 640 640" width="640" height="640" font-family="Arial, Helvetica, sans-serif" font-size="11">
<title>22 mm plak</title>
<rect width="640" height="640" fill="#ffffff"/>
<text x="320.0" y="24" text-anchor="middle" font-size="15" font-weight="bold">Yb-169 HDR episkleral aplikatör, 22 mm plak (ölçek 10 px = 1 mm)</text>
<circle cx="200" cy="190" r="110.0" fill="#e6c96a" stroke="#8a6d1a" stroke-width="1.4"/>
<circle cx="200" cy="190" r="105.0" fill="#eef4f7" stroke="#8a6d1a" stroke-width="0.7"/>
<circle cx="271.4" cy="118.6" r="4.0" fill="#fff" stroke="#8a6d1a" stroke-width="0.8"/>
<circle cx="128.6" cy="118.6" r="4.0" fill="#fff" stroke="#8a6d1a" stroke-width="0.8"/>
<circle cx="105.1" cy="224.5" r="4.0" fill="#fff" stroke="#8a6d1a" stroke-width="0.8"/>
<rect x="107.0" y="147.6" width="16.0" height="84.9" rx="8.0" fill="#b8c7d1" stroke="#2b4c5e" stroke-width="0.8"/>
<rect x="109.0" y="149.6" width="12.0" height="82.9" rx="6.0" fill="#fff"/>
<rect x="109.0" y="149.6" width="12.0" height="20.0" rx="6.0" fill="#f3d1cc"/>
<circle cx="115.0" cy="227.4" r="2.8" fill="#c0392b"/>
<circle cx="115.0" cy="202.4" r="2.8" fill="#c0392b"/>
<circle cx="115.0" cy="177.4" r="2.8" fill="#c0392b"/>
<line x1="115.0" y1="232.4" x2="115.0" y2="310.0" stroke="#2b4c5e" stroke-width="0.8"/>
<rect x="135.3" y="113.8" width="16.0" height="152.5" rx="8.0" fill="#b8c7d1" stroke="#2b4c5e" stroke-width="0.8"/>
<rect x="137.3" y="115.8" width="12.0" height="150.5" rx="6.0" fill="#fff"/>
<rect x="137.3" y="115.8" width="12.0" height="20.0" rx="6.0" fill="#f3d1cc"/>
<circle cx="143.3" cy="261.2" r="2.8" fill="#c0392b"/>
<circle cx="143.3" cy="236.2" r="2.8" fill="#c0392b"/>
<circle cx="143.3" cy="211.2" r="2.8" fill="#c0392b"/>
<circle cx="143.3" cy="186.2" r="2.8" fill="#c0392b"/>
<circle cx="143.3" cy="161.2" r="2.8" fill="#c0392b"/>
<circle cx="143.3" cy="136.2" r="2.8" fill="#c0392b"/>
<line x1="143.3" y1="266.2" x2="143.3" y2="310.0" stroke="#2b4c5e" stroke-width="0.8"/>
<rect x="163.7" y="99.3" width="16.0" height="181.4" rx="8.0" fill="#b8c7d1" stroke="#2b4c5e" stroke-width="0.8"/>
<rect x="165.7" y="101.3" width="12.0" height="179.4" rx="6.0" fill="#fff"/>
<rect x="165.7" y="101.3" width="12.0" height="20.0" rx="6.0" fill="#f3d1cc"/>
<circle cx="171.7" cy="275.7" r="2.8" fill="#c0392b"/>
<circle cx="171.7" cy="250.7" r="2.8" fill="#c0392b"/>
<circle cx="171.7" cy="225.7" r="2.8" fill="#c0392b"/>
<circle cx="171.7" cy="200.7" r="2.8" fill="#c0392b"/>
<circle cx="171.7" cy="175.7" r="2.8" fill="#c0392b"/>
<circle cx="171.7" cy="150.7" r="2.8" fill="#c0392b"/>
<circle cx="171.7" cy="125.7" r="2.8" fill="#c0392b"/>
<line x1="171.7" y1="280.7" x2="171.7" y2="310.0" stroke="#2b4c5e" stroke-width="0.8"/>
<rect x="192.0" y="95.0" width="16.0" height="190.0" rx="8.0" fill="#b8c7d1" stroke="#2b4c5e" stroke-width="0.8"/>
<rect x="194.0" y="97.0" width="12.0" height="188.0" rx="6.0" fill="#fff"/>
<rect x="194.0" y="97.0" width="12.0" height="20.0" rx="6.0" fill="#f3d1cc"/>
<circle cx="200.0" cy="280.0" r="2.8" fill="#c0392b"/>
<circle cx="200.0" cy="255.0" r="2.8" fill="#c0392b"/>
<circle cx="200.0" cy="230.0" r="2.8" fill="#c0392b"/>
<circle cx="200.0" cy="205.0" r="2.8" fill="#c0392b"/>
<circle cx="200.0" cy="180.0" r="2.8" fill="#c0392b"/>
<circle cx="200.0" cy="155.0" r="2.8" fill="#c0392b"/>
<circle cx="200.0" cy="130.0" r="2.8" fill="#c0392b"/>
<line x1="200.0" y1="285.0" x2="200.0" y2="310.0" stroke="#2b4c5e" stroke-width="0.8"/>
<rect x="220.3" y="99.3" width="16.0" height="181.4" rx="8.0" fill="#b8c7d1" stroke="#2b4c5e" stroke-width="0.8"/>
<rect x="222.3" y="101.3" width="12.0" height="179.4" rx="6.0" fill="#fff"/>
<rect x="222.3" y="101.3" width="12.0" height="20.0" rx="6.0" fill="#f3d1cc"/>
<circle cx="228.3" cy="275.7" r="2.8" fill="#c0392b"/>
<circle cx="228.3" cy="250.7" r="2.8" fill="#c0392b"/>
<circle cx="228.3" cy="225.7" r="2.8" fill="#c0392b"/>
<circle cx="228.3" cy="200.7" r="2.8" fill="#c0392b"/>
<circle cx="228.3" cy="175.7" r="2.8" fill="#c0392b"/>
<circle cx="228.3" cy="150.7" r="2.8" fill="#c0392b"/>
<circle cx="228.3" cy="125.7" r="2.8" fill="#c0392b"/>
<line x1="228.3" y1="280.7" x2="228.3" y2="310.0" stroke="#2b4c5e" stroke-width="0.8"/>
<rect x="248.7" y="113.8" width="16.0" height="152.5" rx="8.0" fill="#b8c7d1" stroke="#2b4c5e" stroke-width="0.8"/>
<rect x="250.7" y="115.8" width="12.0" height="150.5" rx="6.0" fill="#fff"/>
<rect x="250.7" y="115.8" width="12.0" height="20.0" rx="6.0" fill="#f3d1cc"/>
<circle cx="256.7" cy="261.2" r="2.8" fill="#c0392b"/>
<circle cx="256.7" cy="236.2" r="2.8" fill="#c0392b"/>
<circle cx="256.7" cy="211.2" r="2.8" fill="#c0392b"/>
<circle cx="256.7" cy="186.2" r="2.8" fill="#c0392b"/>
<circle cx="256.7" cy="161.2" r="2.8" fill="#c0392b"/>
<circle cx="256.7" cy="136.2" r="2.8" fill="#c0392b"/>
<line x1="256.7" y1="266.2" x2="256.7" y2="310.0" stroke="#2b4c5e" stroke-width="0.8"/>
<rect x="277.0" y="147.6" width="16.0" height="84.9" rx="8.0" fill="#b8c7d1" stroke="#2b4c5e" stroke-width="0.8"/>
<rect x="279.0" y="149.6" width="12.0" height="82.9" rx="6.0" fill="#fff"/>
<rect x="279.0" y="149.6" width="12.0" height="20.0" rx="6.0" fill="#f3d1cc"/>
<circle cx="285.0" cy="227.4" r="2.8" fill="#c0392b"/>
<circle cx="285.0" cy="202.4" r="2.8" fill="#c0392b"/>
<circle cx="285.0" cy="177.4" r="2.8" fill="#c0392b"/>
<line x1="285.0" y1="232.4" x2="285.0" y2="310.0" stroke="#2b4c5e" stroke-width="0.8"/>
<rect x="100.0" y="310.0" width="200.0" height="22.0" rx="4.0" fill="#9fb3c0" stroke="#2b4c5e" stroke-width="1"/>
<circle cx="115.0" cy="321.0" r="4.5" fill="#fff" stroke="#2b4c5e" stroke-width="0.7"/>
<text x="115.0" y="324.0" text-anchor="middle" font-size="7" fill="#2b4c5e">1</text>
<circle cx="143.3" cy="321.0" r="4.5" fill="#fff" stroke="#2b4c5e" stroke-width="0.7"/>
<text x="143.3" y="324.0" text-anchor="middle" font-size="7" fill="#2b4c5e">2</text>
<circle cx="171.7" cy="321.0" r="4.5" fill="#fff" stroke="#2b4c5e" stroke-width="0.7"/>
<text x="171.7" y="324.0" text-anchor="middle" font-size="7" fill="#2b4c5e">3</text>
<circle cx="200.0" cy="321.0" r="4.5" fill="#fff" stroke="#2b4c5e" stroke-width="0.7"/>
<text x="200.0" y="324.0" text-anchor="middle" font-size="7" fill="#2b4c5e">4</text>
<circle cx="228.3" cy="321.0" r="4.5" fill="#fff" stroke="#2b4c5e" stroke-width="0.7"/>
<text x="228.3" y="324.0" text-anchor="middle" font-size="7" fill="#2b4c5e">5</text>
<circle cx="256.7" cy="321.0" r="4.5" fill="#fff" stroke="#2b4c5e" stroke-width="0.7"/>
<text x="256.7" y="324.0" text-anchor="middle" font-size="7" fill="#2b4c5e">6</text>
<circle cx="285.0" cy="321.0" r="4.5" fill="#fff" stroke="#2b4c5e" stroke-width="0.7"/>
<text x="285.0" y="324.0" text-anchor="middle" font-size="7" fill="#2b4c5e">7</text>
<path d="M 200 332.0 C 200 362.0 220.0 372.0 240.0 392.0" stroke="#2b4c5e" stroke-width="8.0" fill="none" stroke-linecap="round"/>
<path d="M 200 332.0 C 200 362.0 220.0 372.0 240.0 392.0" stroke="#dfe7ec" stroke-width="4.5" fill="none" stroke-linecap="round"/>
<line x1="90.0" y1="64.0" x2="310.0" y2="64.0" stroke="#333" stroke-width="0.7"/>
<line x1="90.0" y1="59.0" x2="90.0" y2="69.0" stroke="#333" stroke-width="0.7"/>
<line x1="310.0" y1="59.0" x2="310.0" y2="69.0" stroke="#333" stroke-width="0.7"/>
<text x="200" y="60.0" text-anchor="middle" font-size="10" font-weight="bold">Ø 22 mm</text>
<circle cx="470" cy="300" r="113.0" fill="#fdf3e7"/>
<path d="M 347.8 286.0 A 123.0 123.0 0 0 1 592.2 286.0 L 582.3 287.2 A 113.0 113.0 0 0 0 357.7 287.2 Z" fill="#e8dcc8" stroke="#8a7a60" stroke-width="0.8"/>
<path d="M 360.0 245.0 A 123.0 123.0 0 0 1 580.0 245.0 L 587.6 241.2 A 131.5 131.5 0 0 0 352.4 241.2 Z" fill="#d9ecf5" stroke="#4a7c96" stroke-width="0.8"/>
<path d="M 352.4 241.2 A 131.5 131.5 0 0 1 587.6 241.2 L 604.6 232.7 A 150.5 150.5 0 0 0 335.4 232.7 Z" fill="#eef4f7" stroke="#4a7c96" stroke-width="0.8"/>
<path d="M 335.4 232.7 A 150.5 150.5 0 0 1 604.6 232.7 L 618.0 225.9 A 165.5 165.5 0 0 0 322.0 225.9 Z" fill="#e6c96a" stroke="#8a6d1a" stroke-width="1.2"/>
<path d="M 322.0 225.9 L 360.0 245.0 L 365.0 235.9 L 328.7 213.8 Z" fill="#e6c96a" stroke="#8a6d1a" stroke-width="1"/>
<path d="M 618.0 225.9 L 580.0 245.0 L 575.0 235.9 L 611.3 213.8 Z" fill="#e6c96a" stroke="#8a6d1a" stroke-width="1"/>
<circle cx="385.0" cy="191.3" r="8.0" fill="#b8c7d1" stroke="#2b4c5e" stroke-width="0.7"/>
<circle cx="385.0" cy="191.3" r="6.0" fill="#fff"/>
<circle cx="413.3" cy="174.2" r="8.0" fill="#b8c7d1" stroke="#2b4c5e" stroke-width="0.7"/>
<circle cx="413.3" cy="174.2" r="6.0" fill="#fff"/>
<circle cx="441.7" cy="164.9" r="8.0" fill="#b8c7d1" stroke="#2b4c5e" stroke-width="0.7"/>
<circle cx="441.7" cy="164.9" r="6.0" fill="#fff"/>
<circle cx="470.0" cy="162.0" r="8.0" fill="#b8c7d1" stroke="#2b4c5e" stroke-width="0.7"/>
<circle cx="470.0" cy="162.0" r="6.0" fill="#fff"/>
<circle cx="498.3" cy="164.9" r="8.0" fill="#b8c7d1" stroke="#2b4c5e" stroke-width="0.7"/>
<circle cx="498.3" cy="164.9" r="6.0" fill="#fff"/>
<circle cx="526.7" cy="174.2" r="8.0" fill="#b8c7d1" stroke="#2b4c5e" stroke-width="0.7"/>
<circle cx="526.7" cy="174.2" r="6.0" fill="#fff"/>
<circle cx="555.0" cy="191.3" r="8.0" fill="#b8c7d1" stroke="#2b4c5e" stroke-width="0.7"/>
<circle cx="555.0" cy="191.3" r="6.0" fill="#fff"/>
<circle cx="470.0" cy="162.0" r="3.5" fill="#c0392b"/>
<line x1="605.0" y1="134.5" x2="605.0" y2="177.0" stroke="#333" stroke-width="0.7"/>
<line x1="602.0" y1="134.5" x2="608.0" y2="134.5" stroke="#333" stroke-width="0.7"/>
<line x1="602.0" y1="177.0" x2="608.0" y2="177.0" stroke="#333" stroke-width="0.7"/>
<text x="610.0" y="158.8" text-anchor="start" font-size="9">4.25 mm</text>
<text x="200" y="415" text-anchor="middle" font-size="11" fill="#555">Üstten görünüş, anterior (giriş bloğu) altta</text>
<text x="470" y="132" text-anchor="middle" font-size="11" fill="#555">Kesit, kanal eksenine dik</text>
<text x="40" y="470" font-size="11" fill="#222">Çap 22 mm, tümör tabanı ≤ 18 mm için</text>
<text x="40" y="488" font-size="11" fill="#222">Kanal: 7 paralel kör kiriş, aralık 2.83 mm, iç çap 1.2 mm</text>
<text x="40" y="506" font-size="11" fill="#222">Bekleme pozisyonu: 39 adet, adım 2.5 mm, kör uç ölü boşluğu 2.0 mm</text>
<text x="40" y="524" font-size="11" fill="#222">En uzun kanal yayı 21.0 mm; eksen skleradan 1.5 mm, küre yarıçapı 13.8 mm</text>
<text x="40" y="542" font-size="11" fill="#222">Katmanlar: ara katman 0.85 mm, kanal katmanı 1.9 mm, altın sırt 1.5 mm; kenar kalkanı 0.5 mm tam yükseklik</text>
<text x="40" y="560" font-size="11" fill="#222">Kubbe derinliği (sagitta) 6.8 mm, yarım açı 63°; iç eğrilik yarıçapı 12.3 mm</text>
<text x="40" y="578" font-size="11" fill="#222">Sütür deliği 3 adet, Ø 0,8 mm. Tek giriş bloğu, tek kilitli konektör, tek kılıf.</text>
<text x="320.0" y="626" text-anchor="middle" font-size="10" fill="#777">Şematik tasarım çizimi, taslak v0.1. Üretim çizimi değildir; toleranslar belge 02.</text>
</svg>
