<svg xmlns="http://www.w3.org/2000/svg" viewBox="0 0 640 640" width="640" height="640" font-family="Arial, Helvetica, sans-serif" font-size="11">
<title>18 mm çentikli plak</title>
<rect width="640" height="640" fill="#ffffff"/>
<text x="320.0" y="24" text-anchor="middle" font-size="15" font-weight="bold">Yb-169 HDR episkleral aplikatör, 18 mm çentikli plak (ölçek 10 px = 1 mm)</text>
<rect x="125.0" y="234.0" width="24.0" height="40.0" rx="6.0" fill="#e6c96a" stroke="#8a6d1a" stroke-width="1.0"/>
<path d="M 137.0 274.0 C 137.0 314.0 127.5 334.0 121.2 364.0" stroke="#2b4c5e" stroke-width="20.0" fill="none" stroke-linecap="round"/>
<path d="M 137.0 274.0 C 137.0 314.0 127.5 334.0 121.2 364.0" stroke="#dfe7ec" stroke-width="15.0" fill="none" stroke-linecap="round"/>
<circle cx="137.0" cy="268.0" r="6.0" fill="#fff" stroke="#2b4c5e" stroke-width="0.5"/>
<rect x="156.5" y="256.8" width="24.0" height="40.0" rx="6.0" fill="#e6c96a" stroke="#8a6d1a" stroke-width="1.0"/>
<path d="M 168.5 296.8 C 168.5 336.8 163.8 356.8 160.6 386.8" stroke="#2b4c5e" stroke-width="20.0" fill="none" stroke-linecap="round"/>
<path d="M 168.5 296.8 C 168.5 336.8 163.8 356.8 160.6 386.8" stroke="#dfe7ec" stroke-width="15.0" fill="none" stroke-linecap="round"/>
<circle cx="168.5" cy="290.8" r="6.0" fill="#fff" stroke="#2b4c5e" stroke-width="0.5"/>
<rect x="188.0" y="263.0" width="24.0" height="40.0" rx="6.0" fill="#e6c96a" stroke="#8a6d1a" stroke-width="1.0"/>
<path d="M 200.0 303.0 C 200.0 343.0 200.0 363.0 200.0 393.0" stroke="#2b4c5e" stroke-width="20.0" fill="none" stroke-linecap="round"/>
<path d="M 200.0 303.0 C 200.0 343.0 200.0 363.0 200.0 393.0" stroke="#dfe7ec" stroke-width="15.0" fill="none" stroke-linecap="round"/>
<circle cx="200.0" cy="297.0" r="6.0" fill="#fff" stroke="#2b4c5e" stroke-width="0.5"/>
<rect x="219.5" y="256.8" width="24.0" height="40.0" rx="6.0" fill="#e6c96a" stroke="#8a6d1a" stroke-width="1.0"/>
<path d="M 231.5 296.8 C 231.5 336.8 236.2 356.8 239.4 386.8" stroke="#2b4c5e" stroke-width="20.0" fill="none" stroke-linecap="round"/>
<path d="M 231.5 296.8 C 231.5 336.8 236.2 356.8 239.4 386.8" stroke="#dfe7ec" stroke-width="15.0" fill="none" stroke-linecap="round"/>
<circle cx="231.5" cy="290.8" r="6.0" fill="#fff" stroke="#2b4c5e" stroke-width="0.5"/>
<rect x="251.0" y="234.0" width="24.0" height="40.0" rx="6.0" fill="#e6c96a" stroke="#8a6d1a" stroke-width="1.0"/>
<path d="M 263.0 274.0 C 263.0 314.0 272.4 334.0 278.8 364.0" stroke="#2b4c5e" stroke-width="20.0" fill="none" stroke-linecap="round"/>
<path d="M 263.0 274.0 C 263.0 314.0 272.4 334.0 278.8 364.0" stroke="#dfe7ec" stroke-width="15.0" fill="none" stroke-linecap="round"/>
<circle cx="263.0" cy="268.0" r="6.0" fill="#fff" stroke="#2b4c5e" stroke-width="0.5"/>
<text x="200.0" y="415.0" text-anchor="middle" font-size="9" fill="#555">kanal başına altın ağız Ø 2.4 × 3 mm ve ayrı kateter Ø 2.0 mm</text>
<path d="M 250.0 115.2 A 90.0 90.0 0 1 1 150.0 115.2 L 150.0 110.0 A 50.0 50.0 0 0 0 250.0 110.0 Z" fill="#efdca0" stroke="#8a6d1a" stroke-width="1.4"/>
<path d="M 265.0 152.6 A 75.0 75.0 0 1 1 135.0 152.6 L 135.0 110.0 A 65.0 65.0 0 0 0 265.0 110.0 Z" fill="#e6c96a" stroke="#c9ad4f" stroke-width="0.6"/>
<path d="M 255.0 125.2 A 85.0 85.0 0 1 1 145.0 125.2 L 145.0 110.0 A 55.0 55.0 0 0 0 255.0 110.0 Z" fill="#eef4f7" stroke="#8a6d1a" stroke-width="0.7" opacity="0.92"/>
<circle cx="279.8" cy="175.9" r="4.0" fill="#fff" stroke="#8a6d1a" stroke-width="0.8"/>
<circle cx="120.2" cy="175.9" r="4.0" fill="#fff" stroke="#8a6d1a" stroke-width="0.8"/>
<circle cx="123.9" cy="217.7" r="4.0" fill="#fff" stroke="#8a6d1a" stroke-width="0.8"/>
<rect x="-3.0" y="-8.0" width="108.1" height="16.0" rx="8.0" fill="#b8c7d1" stroke="#2b4c5e" stroke-width="0.8" transform="translate(137.0,244.0) rotate(-90.00)"/>
<rect x="-3.0" y="-6.0" width="106.1" height="12.0" rx="6.0" fill="#fff" transform="translate(137.0,244.0) rotate(-90.00)"/>
<rect x="83.1" y="-6.0" width="20.0" height="12.0" rx="6.0" fill="#f3d1cc" transform="translate(137.0,244.0) rotate(-90.00)"/>
<circle cx="137.0" cy="239.0" r="2.8" fill="#c0392b"/>
<circle cx="137.0" cy="214.0" r="2.8" fill="#c0392b"/>
<circle cx="137.0" cy="189.0" r="2.8" fill="#c0392b"/>
<circle cx="137.0" cy="164.0" r="2.8" fill="#c0392b"/>
<rect x="-3.0" y="-8.0" width="113.0" height="16.0" rx="8.0" fill="#b8c7d1" stroke="#2b4c5e" stroke-width="0.8" transform="translate(168.5,266.8) rotate(-90.00)"/>
<rect x="-3.0" y="-6.0" width="111.0" height="12.0" rx="6.0" fill="#fff" transform="translate(168.5,266.8) rotate(-90.00)"/>
<rect x="88.0" y="-6.0" width="20.0" height="12.0" rx="6.0" fill="#f3d1cc" transform="translate(168.5,266.8) rotate(-90.00)"/>
<circle cx="168.5" cy="261.8" r="2.8" fill="#c0392b"/>
<circle cx="168.5" cy="236.8" r="2.8" fill="#c0392b"/>
<circle cx="168.5" cy="211.8" r="2.8" fill="#c0392b"/>
<circle cx="168.5" cy="186.8" r="2.8" fill="#c0392b"/>
<rect x="-3.0" y="-8.0" width="108.0" height="16.0" rx="8.0" fill="#b8c7d1" stroke="#2b4c5e" stroke-width="0.8" transform="translate(200.0,273.0) rotate(-90.00)"/>
<rect x="-3.0" y="-6.0" width="106.0" height="12.0" rx="6.0" fill="#fff" transform="translate(200.0,273.0) rotate(-90.00)"/>
<rect x="83.0" y="-6.0" width="20.0" height="12.0" rx="6.0" fill="#f3d1cc" transform="translate(200.0,273.0) rotate(-90.00)"/>
<circle cx="200.0" cy="268.0" r="2.8" fill="#c0392b"/>
<circle cx="200.0" cy="243.0" r="2.8" fill="#c0392b"/>
<circle cx="200.0" cy="218.0" r="2.8" fill="#c0392b"/>
<circle cx="200.0" cy="193.0" r="2.8" fill="#c0392b"/>
<rect x="-3.0" y="-8.0" width="113.0" height="16.0" rx="8.0" fill="#b8c7d1" stroke="#2b4c5e" stroke-width="0.8" transform="translate(231.5,266.8) rotate(-90.00)"/>
<rect x="-3.0" y="-6.0" width="111.0" height="12.0" rx="6.0" fill="#fff" transform="translate(231.5,266.8) rotate(-90.00)"/>
<rect x="88.0" y="-6.0" width="20.0" height="12.0" rx="6.0" fill="#f3d1cc" transform="translate(231.5,266.8) rotate(-90.00)"/>
<circle cx="231.5" cy="261.8" r="2.8" fill="#c0392b"/>
<circle cx="231.5" cy="236.8" r="2.8" fill="#c0392b"/>
<circle cx="231.5" cy="211.8" r="2.8" fill="#c0392b"/>
<circle cx="231.5" cy="186.8" r="2.8" fill="#c0392b"/>
<rect x="-3.0" y="-8.0" width="108.1" height="16.0" rx="8.0" fill="#b8c7d1" stroke="#2b4c5e" stroke-width="0.8" transform="translate(263.0,244.0) rotate(-90.00)"/>
<rect x="-3.0" y="-6.0" width="106.1" height="12.0" rx="6.0" fill="#fff" transform="translate(263.0,244.0) rotate(-90.00)"/>
<rect x="83.1" y="-6.0" width="20.0" height="12.0" rx="6.0" fill="#f3d1cc" transform="translate(263.0,244.0) rotate(-90.00)"/>
<circle cx="263.0" cy="239.0" r="2.8" fill="#c0392b"/>
<circle cx="263.0" cy="214.0" r="2.8" fill="#c0392b"/>
<circle cx="263.0" cy="189.0" r="2.8" fill="#c0392b"/>
<circle cx="263.0" cy="164.0" r="2.8" fill="#c0392b"/>
<line x1="110.0" y1="84.0" x2="290.0" y2="84.0" stroke="#333" stroke-width="0.7"/>
<line x1="110.0" y1="79.0" x2="110.0" y2="89.0" stroke="#333" stroke-width="0.7"/>
<line x1="290.0" y1="79.0" x2="290.0" y2="89.0" stroke="#333" stroke-width="0.7"/>
<text x="200" y="80.0" text-anchor="middle" font-size="10" font-weight="bold">Ø 18 mm</text>
<line x1="230.0" y1="120.0" x2="305.0" y2="105.0" stroke="#7a3c3c" stroke-width="0.7"/>
<text x="307.0" y="105.0" text-anchor="start" font-size="9" fill="#7a3c3c">çentik 10 mm</text>
<text x="307.0" y="117.0" text-anchor="start" font-size="9" fill="#7a3c3c">sinir ekseni merkezden 8 mm</text>
<text x="307.0" y="129.0" text-anchor="start" font-size="9" fill="#7a3c3c">dip merkezden 3 mm</text>
<circle cx="450" cy="300" r="113.0" fill="#fdf3e7"/>
<path d="M 342.0 241.1 A 123.0 123.0 0 0 1 558.0 241.1 L 558.0 266.8 A 113.0 113.0 0 0 0 342.0 266.8 Z" fill="#e8dcc8" stroke="#8a7a60" stroke-width="0.8"/>
<path d="M 365.0 199.7 A 131.5 131.5 0 0 1 535.0 199.7 L 535.0 211.1 A 123.0 123.0 0 0 0 365.0 211.1 Z" fill="#d9ecf5" stroke="#4a7c96" stroke-width="0.8"/>
<path d="M 365.0 175.8 A 150.5 150.5 0 0 1 535.0 175.8 L 535.0 199.7 A 131.5 131.5 0 0 0 365.0 199.7 Z" fill="#eef4f7" stroke="#4a7c96" stroke-width="0.8"/>
<path d="M 360.0 179.4 A 150.5 150.5 0 0 1 540.0 179.4 L 540.0 176.1 A 15.0 15.0 0 0 0 525.0 152.5 A 165.5 165.5 0 0 0 375.0 152.5 A 15.0 15.0 0 0 0 360.0 176.1 Z" fill="#e6c96a" stroke="#8a6d1a" stroke-width="1.2"/>
<path d="M 360.0 179.4 L 360.0 216.2 L 365.0 211.1 L 365.0 175.8 Z" fill="#e6c96a" stroke="#8a6d1a" stroke-width="1"/>
<path d="M 540.0 179.4 L 540.0 216.2 L 535.0 211.1 L 535.0 175.8 Z" fill="#e6c96a" stroke="#8a6d1a" stroke-width="1"/>
<circle cx="387.0" cy="177.2" r="8.0" fill="#b8c7d1" stroke="#2b4c5e" stroke-width="0.7"/>
<circle cx="387.0" cy="177.2" r="6.0" fill="#fff"/>
<circle cx="418.5" cy="165.6" r="8.0" fill="#b8c7d1" stroke="#2b4c5e" stroke-width="0.7"/>
<circle cx="418.5" cy="165.6" r="6.0" fill="#fff"/>
<circle cx="450.0" cy="162.0" r="8.0" fill="#b8c7d1" stroke="#2b4c5e" stroke-width="0.7"/>
<circle cx="450.0" cy="162.0" r="6.0" fill="#fff"/>
<circle cx="481.5" cy="165.6" r="8.0" fill="#b8c7d1" stroke="#2b4c5e" stroke-width="0.7"/>
<circle cx="481.5" cy="165.6" r="6.0" fill="#fff"/>
<circle cx="513.0" cy="177.2" r="8.0" fill="#b8c7d1" stroke="#2b4c5e" stroke-width="0.7"/>
<circle cx="513.0" cy="177.2" r="6.0" fill="#fff"/>
<circle cx="450.0" cy="162.0" r="3.5" fill="#c0392b"/>
<line x1="565.0" y1="134.5" x2="565.0" y2="177.0" stroke="#333" stroke-width="0.7"/>
<line x1="562.0" y1="134.5" x2="568.0" y2="134.5" stroke="#333" stroke-width="0.7"/>
<line x1="562.0" y1="177.0" x2="568.0" y2="177.0" stroke="#333" stroke-width="0.7"/>
<text x="570.0" y="158.8" text-anchor="start" font-size="9">4.25 mm merkez</text>
<text x="570.0" y="170.8" text-anchor="start" font-size="9">5.5 mm kenar</text>
<text x="200" y="438" text-anchor="middle" font-size="11" fill="#555">Üstten görünüş, anterior (kanal ağızları) altta</text>
<text x="450" y="117" text-anchor="middle" font-size="11" fill="#555">Kesit, kanal eksenine dik; duvar eksene paralel</text>
<text x="30" y="452" font-size="10.5" fill="#222">Çap 18 mm, çentikli: jukstapapiller tümör, taban ≤ 14 mm, posterior kenarı disk kenarında; bir boy büyük seçilir</text>
<text x="30" y="469" font-size="10.5" fill="#222">Kanal: 5 paralel kör kiriş, x = -6.3, -3.1, +0.0, +3.1, +6.3 mm; 3 tanesi çentikte kısaltılmış; iç çap 1.2 mm</text>
<text x="30" y="486" font-size="10.5" fill="#222">Bekleme pozisyonu: 20 adet, adım 2.5 mm, kör uç ölü boşluğu 2.0 mm</text>
<text x="30" y="503" font-size="10.5" fill="#222">En uzun kanal yayı 17.8 mm; eğrilik yalnızca küreden (13.8 mm); eksen skleradan 1.5 mm</text>
<text x="30" y="520" font-size="10.5" fill="#222">Katmanlar: ara katman 0.85 mm, kanal katmanı 1.9 mm, altın sırt 1.5 mm; kenar kalkanı 0.5 mm; dış kenar 1.5 mm yuvarlatılmış</text>
<text x="30" y="537" font-size="10.5" fill="#222">Kubbe derinliği (sagitta) 3.9 mm, yarım açı 47°; iç eğrilik yarıçapı 12.3 mm; kenar duvar yüksekliği 5.5 mm</text>
<text x="30" y="554" font-size="10.5" fill="#222">Sütür deliği 3 adet, Ø 0,8 mm. Her kanal kendi altın ağzından çıkar; kanal başına ayrı kateter, ayrı transfer tüpü.</text>
<text x="30" y="571" font-size="10.5" fill="#222">Çentik: U biçimli, genişlik 10 mm, sinir ekseni plak merkezinden 8 mm (kenardan 1 mm içeride), dip merkezden 3 mm; kalkan çentiği izler</text>
<text x="320.0" y="626" text-anchor="middle" font-size="10" fill="#777">Şematik tasarım çizimi, taslak v0.1. Üretim çizimi değildir; toleranslar belge 02.</text>
</svg>
